HIERARCHY
ROOT joint_Root
{
  OFFSET 0 0 0
  CHANNELS 6 Xposition Yposition Zposition Zrotation Xrotation Yrotation
  JOINT Hips
  {
    OFFSET 0 93.9241 -3
    CHANNELS 6 Xposition Yposition Zposition Zrotation Xrotation Yrotation
    JOINT Spine
    {
      OFFSET 15.7357 0 0
      CHANNELS 6 Xposition Yposition Zposition Zrotation Xrotation Yrotation
      JOINT Chest
      {
        OFFSET 8.98455 -0.406207 0
        CHANNELS 6 Xposition Yposition Zposition Zrotation Xrotation Yrotation
        JOINT Neck
        {
          OFFSET 16.3773 0 0
          CHANNELS 6 Xposition Yposition Zposition Zrotation Xrotation Yrotation
          JOINT Head
          {
            OFFSET 6.45672 0 0
            CHANNELS 6 Xposition Yposition Zposition Zrotation Xrotation Yrotation
            End Site
            {
              OFFSET 0 0 0
            }
          }
        }
        JOINT Shoulder_L
        {
          OFFSET 12.9942 -0.242716 4.98039
          CHANNELS 6 Xposition Yposition Zposition Zrotation Xrotation Yrotation
          JOINT UpperArm_L
          {
            OFFSET 5.34809 0 0
            CHANNELS 6 Xposition Yposition Zposition Zrotation Xrotation Yrotation
            JOINT LowerArm_L
            {
              OFFSET 24.3286 1.87007e-05 0
              CHANNELS 6 Xposition Yposition Zposition Zrotation Xrotation Yrotation
              JOINT Hand_L
              {
                OFFSET 22.2916 0 0
                CHANNELS 6 Xposition Yposition Zposition Zrotation Xrotation Yrotation
                End Site
                {
                  OFFSET 0 0 0
                }
              }
            }
          }
        }
        JOINT Shoulder_R
        {
          OFFSET 12.9945 -0.242716 -4.98039
          CHANNELS 6 Xposition Yposition Zposition Zrotation Xrotation Yrotation
          JOINT UpperArm_R
          {
            OFFSET -5.34813 0 0
            CHANNELS 6 Xposition Yposition Zposition Zrotation Xrotation Yrotation
            JOINT LowerArm_R
            {
              OFFSET -24.3289 0.000322201 0
              CHANNELS 6 Xposition Yposition Zposition Zrotation Xrotation Yrotation
              JOINT Hand_R
              {
                OFFSET -22.2915 -0.000108084 0
                CHANNELS 6 Xposition Yposition Zposition Zrotation Xrotation Yrotation
                End Site
                {
                  OFFSET 0 0 0
                }
              }
            }
          }
        }
      }
    }
    JOINT UpperLeg_L
    {
      OFFSET -2.19248 -6.46944 0
      CHANNELS 6 Xposition Yposition Zposition Zrotation Xrotation Yrotation
      JOINT LowerLeg_L
      {
        OFFSET 39.0811 0 -1.23785e-05
        CHANNELS 6 Xposition Yposition Zposition Zrotation Xrotation Yrotation
        JOINT Foot_L
        {
          OFFSET 40.9854 0 -1.26872e-05
          CHANNELS 6 Xposition Yposition Zposition Zrotation Xrotation Yrotation
          JOINT Toes_L
          {
            OFFSET 11.7543 0 0
            CHANNELS 6 Xposition Yposition Zposition Zrotation Xrotation Yrotation
            End Site
            {
              OFFSET 0 0 0
            }
          }
        }
      }
    }
    JOINT UpperLeg_R
    {
      OFFSET -2.19251 6.46944 0
      CHANNELS 6 Xposition Yposition Zposition Zrotation Xrotation Yrotation
      JOINT LowerLeg_R
      {
        OFFSET -39.0811 -0.00228153 -0.0401928
        CHANNELS 6 Xposition Yposition Zposition Zrotation Xrotation Yrotation
        JOINT Foot_R
        {
          OFFSET -40.9854 0 0
          CHANNELS 6 Xposition Yposition Zposition Zrotation Xrotation Yrotation
          JOINT Toes_R
          {
            OFFSET -11.7543 0 0
            CHANNELS 6 Xposition Yposition Zposition Zrotation Xrotation Yrotation
            End Site
            {
              OFFSET 0 0 0
            }
          }
        }
      }
    }
  }
}
MOTION
Frames:	7
Frame Time:	0.0333333
0 0 0 0 0 -0 0.00147031 93.1511 -18.1371 86.4728 -3.63511 -34.5592 15.7357 5.1072e-06 -5.51765e-07 96.0685 77.9079 -96.3074 8.98455 -0.406207 -4.3199e-07 16.2992 2.49999 -0.836451 16.3773 -1.3905e-06 -6.99897e-07 2.62857 0.440285 -2.39829 6.45672 -1.25837e-06 -1.02172e-07 13.9227 -3.32628 0.511476 12.9942 -0.242716 4.98039 -89.1856 -5.22451 -96.1272 5.34809 -7.22636e-06 -6.2814e-07 -60.2975 42.4847 -5.47612 24.3286 1.87007e-05 4.90208e-06 46.5137 -20.1001 -108.054 22.2916 -9.88446e-07 4.63217e-06 13.3641 5.4575 -4.91138 12.9945 -0.242716 -4.98039 89.9859 0.520341 -103.443 -5.34813 -1.25947e-06 -3.79883e-06 -65.8357 43.1745 1.94389 -24.3289 0.000322201 -8.65921e-06 41.7463 -15.7009 -106.869 -22.2915 -0.000108084 -4.47941e-06 28.9936 5.68007 -19.6068 -2.19248 -6.46944 -1.22534e-07 171.235 -8.63882 -47.2766 39.0811 -6.73843e-06 -1.23785e-05 -0.000798626 -0.0014776 0.121669 40.9854 -6.48686e-06 -1.26872e-05 2.19135 12.609 -39.0312 11.7543 -2.30145e-07 3.05095e-06 -0.150679 0.162406 -14.9625 -2.19251 6.46944 -1.45247e-06 -159.506 8.16658 139.865 -39.0811 -0.00228153 -0.0401928 -0.00572827 0.246021 2.10673 -40.9854 7.72618e-06 5.99936e-06 12.1309 -19.8723 -48.2367 -11.7543 -5.6619e-06 -5.58687e-06 -0.0581633 0.0596835 -16.1097 
0 0 0 0 0 -0 -0.0372616 93.1998 -17.5801 86.7736 -3.95357 -31.6345 15.7357 5.1072e-06 -5.51765e-07 95.7683 78.0741 -96.1208 8.98455 -0.406207 -4.3199e-07 15.982 2.3368 -1.03397 16.3773 -1.3905e-06 -6.99897e-07 3.78489 0.482519 -2.44263 6.45672 -1.25837e-06 -1.02172e-07 15.1595 -3.11098 0.406839 12.9942 -0.242716 4.98039 -89.1496 -5.44846 -96.1144 5.34809 -7.22636e-06 -6.2814e-07 -58.8637 42.5824 -6.97846 24.3286 1.87007e-05 4.90208e-06 46.4582 -19.8007 -107.845 22.2916 -9.88446e-07 4.63217e-06 13.7684 5.44644 -4.514 12.9945 -0.242716 -4.98039 89.9871 0.371029 -103.013 -5.34813 -1.25947e-06 -3.79883e-06 -64.5755 43.4847 0.180878 -24.3289 0.000322201 -8.65921e-06 41.6776 -15.1214 -106.331 -22.2915 -0.000108084 -4.47941e-06 29.7443 5.68033 -19.7214 -2.19248 -6.46944 -1.22534e-07 171.267 -9.29138 -43.9332 39.0811 -6.73843e-06 -1.23785e-05 -0.000913366 -0.00646534 0.113633 40.9854 -6.48686e-06 -1.26872e-05 2.34552 12.7003 -39.384 11.7543 -2.30145e-07 3.05095e-06 -0.149351 0.161017 -14.9765 -2.19251 6.46944 -1.45247e-06 -160.297 9.43087 143.115 -39.0811 -0.00228153 -0.0401928 -0.00499855 0.239141 1.98858 -40.9854 7.72618e-06 5.99936e-06 11.6954 -19.5708 -48.5858 -11.7543 -5.6619e-06 -5.58687e-06 -0.0664618 0.0681337 -16.0438 
0 0 0 0 0 -0 -0.112081 93.2411 -16.8858 87.1604 -4.26872 -28.3504 15.7357 5.1072e-06 -5.51765e-07 95.3595 78.3959 -95.8497 8.98455 -0.406207 -4.3199e-07 15.3575 2.10576 -1.26521 16.3773 -1.3905e-06 -6.99897e-07 4.92913 0.571606 -2.50086 6.45672 -1.25837e-06 -1.02172e-07 16.0419 -2.83093 0.38816 12.9942 -0.242716 4.98039 -89.082 -5.79661 -95.9841 5.34809 -7.22636e-06 -6.2814e-07 -58.1577 42.6309 -7.93699 24.3286 1.87007e-05 4.90208e-06 46.197 -19.1873 -107.495 22.2916 -9.88446e-07 4.63217e-06 14.2679 5.44244 -4.37188 12.9945 -0.242716 -4.98039 89.9868 0.324348 -102.68 -5.34813 -1.25947e-06 -3.79883e-06 -63.607 43.6047 -1.09509 -24.3289 0.000322201 -8.65921e-06 41.391 -14.7294 -106.092 -22.2915 -0.000108084 -4.47941e-06 29.2106 5.67997 -19.5665 -2.19248 -6.46944 -1.22534e-07 171.332 -10.0467 -40.106 39.0811 -6.73843e-06 -1.23785e-05 -0.000931795 -0.00622541 0.0685438 40.9854 -6.48686e-06 -1.26872e-05 2.33093 12.7958 -39.8599 11.7543 -2.30145e-07 3.05095e-06 -0.162246 0.174503 -14.8405 -2.19251 6.46944 -1.45247e-06 -161.22 10.9275 146.701 -39.0811 -0.00228153 -0.0401928 -0.00505122 0.23231 2.06098 -40.9854 7.72618e-06 5.99936e-06 11.1583 -19.2188 -49.1171 -11.7543 -5.6619e-06 -5.58687e-06 -0.0713033 0.07303 -16.0054 
0 0 0 0 0 -0 -0.192279 93.2631 -16.0063 87.7274 -4.60258 -24.8644 15.7357 5.1072e-06 -5.51765e-07 95.1007 78.8616 -95.7674 8.98455 -0.406207 -4.3199e-07 14.4401 1.91767 -1.57712 16.3773 -1.3905e-06 -6.99897e-07 5.67149 0.658231 -2.53339 6.45672 -1.25837e-06 -1.02172e-07 16.65 -2.48963 0.483055 12.9942 -0.242716 4.98039 -89.0256 -6.05777 -95.8446 5.34809 -7.22636e-06 -6.2814e-07 -57.8856 42.8577 -8.47977 24.3286 1.87007e-05 4.90208e-06 45.5347 -18.3169 -107.143 22.2916 -9.88446e-07 4.63217e-06 15.0446 5.44579 -4.49103 12.9945 -0.242716 -4.98039 89.9872 0.282572 -102.413 -5.34813 -1.25947e-06 -3.79883e-06 -63.1544 43.7432 -1.78808 -24.3289 0.000322201 -8.65921e-06 41.2818 -14.217 -105.628 -22.2915 -0.000108084 -4.47941e-06 29.5095 5.68045 -19.7672 -2.19248 -6.46944 -1.22534e-07 171.505 -10.6126 -35.8933 39.0811 -6.73843e-06 -1.23785e-05 -0.0151285 -0.00876996 0.0617539 40.9854 -6.48686e-06 -1.26872e-05 2.39164 12.6255 -40.4546 11.7543 -2.30145e-07 3.05095e-06 -0.141688 0.152976 -15.0575 -2.19251 6.46944 -1.45247e-06 -162.245 13.0025 150.672 -39.0811 -0.00228153 -0.0401928 -0.00437171 0.220815 1.97833 -40.9854 7.72618e-06 5.99936e-06 10.3977 -18.336 -49.9384 -11.7543 -5.6619e-06 -5.58687e-06 -0.0674764 0.0691781 -16.0355 
0 0 0 0 0 -0 -0.289427 93.2639 -14.9938 88.3238 -4.8716 -21.4393 15.7357 5.1072e-06 -5.51765e-07 95.4579 79.5081 -96.2525 8.98455 -0.406207 -4.3199e-07 13.1422 1.93815 -1.81271 16.3773 -1.3905e-06 -6.99897e-07 5.84216 0.747408 -2.56925 6.45672 -1.25837e-06 -1.02172e-07 17.1433 -2.21054 0.320634 12.9942 -0.242716 4.98039 -89.0075 -6.14463 -95.8062 5.34809 -7.22636e-06 -6.2814e-07 -57.5751 43.6113 -8.98476 24.3286 1.87007e-05 4.90208e-06 45.5249 -17.5361 -106.48 22.2916 -9.88446e-07 4.63217e-06 15.8221 5.44456 -4.44676 12.9945 -0.242716 -4.98039 89.9919 0.158846 -102.07 -5.34813 -1.25947e-06 -3.79883e-06 -63.3447 43.9999 -1.58929 -24.3289 0.000322201 -8.65921e-06 41.2368 -13.797 -105.22 -22.2915 -0.000108084 -4.47941e-06 29.4369 5.68096 -20.0022 -2.19248 -6.46944 -1.22534e-07 171.954 -10.7387 -31.6798 39.0811 -6.73843e-06 -1.23785e-05 -0.00699745 -0.00841659 0.164002 40.9854 -6.48686e-06 -1.26872e-05 2.4409 12.0444 -41.3008 11.7543 -2.30145e-07 3.05095e-06 -0.135713 0.146677 -15.1209 -2.19251 6.46944 -1.45247e-06 -163.29 15.4562 154.803 -39.0811 -0.00228153 -0.0401928 -0.0029076 0.211613 1.66675 -40.9854 7.72618e-06 5.99936e-06 9.71671 -17.0678 -50.9857 -11.7543 -5.6619e-06 -5.58687e-06 -0.0755718 0.0773708 -15.9715 
0 0 0 0 0 -0 -0.383407 93.2469 -13.9522 88.9124 -5.12667 -18.4522 15.7357 5.1072e-06 -5.51765e-07 96.466 80.3525 -97.3607 8.98455 -0.406207 -4.3199e-07 11.4294 2.127 -2.00173 16.3773 -1.3905e-06 -6.99897e-07 5.47267 0.812322 -2.53435 6.45672 -1.25837e-06 -1.02172e-07 17.0159 -2.205 -0.0819124 12.9942 -0.242716 4.98039 -88.9936 -6.22383 -95.796 5.34809 -7.22636e-06 -6.2814e-07 -57.3445 44.5949 -9.38767 24.3286 1.87007e-05 4.90208e-06 45.0647 -16.8262 -106.109 22.2916 -9.88446e-07 4.63217e-06 16.1786 5.45059 -4.66023 12.9945 -0.242716 -4.98039 89.9954 0.081372 -101.778 -5.34813 -1.25947e-06 -3.79883e-06 -64.0225 44.4307 -0.515514 -24.3289 0.000322201 -8.65921e-06 40.8278 -13.5682 -105.191 -22.2915 -0.000108084 -4.47941e-06 29.3534 5.68082 -19.927 -2.19248 -6.46944 -1.22534e-07 172.688 -10.0054 -27.6852 39.0811 -6.73843e-06 -1.23785e-05 -0.00147466 -0.00209543 -0.00389039 40.9854 -6.48686e-06 -1.26872e-05 2.52794 10.5676 -42.034 11.7543 -2.30145e-07 3.05095e-06 -0.120763 0.130887 -15.2793 -2.19251 6.46944 -1.45247e-06 -164.552 17.3879 158.505 -39.0811 -0.00228153 -0.0401928 -0.00209373 0.207387 1.50783 -40.9854 7.72618e-06 5.99936e-06 9.27191 -16.1651 -51.8274 -11.7543 -5.6619e-06 -5.58687e-06 -0.0697631 0.0714801 -16.0175 
0 0 0 0 0 -0 -0.474165 93.2377 -12.8959 89.4409 -5.53763 -15.963 15.7357 5.1072e-06 -5.51765e-07 97.9225 81.3758 -98.9444 8.98455 -0.406207 -4.3199e-07 9.34544 2.35005 -2.23442 16.3773 -1.3905e-06 -6.99897e-07 4.69706 0.86048 -2.55685 6.45672 -1.25837e-06 -1.02172e-07 16.5993 -2.25415 -0.392442 12.9942 -0.242716 4.98039 -88.9989 -6.23571 -95.8605 5.34809 -7.22636e-06 -6.2814e-07 -57.4164 45.5062 -9.1857 24.3286 1.87007e-05 4.90208e-06 43.7029 -15.9122 -106.006 22.2916 -9.88446e-07 4.63217e-06 16.2933 5.46497 -5.18215 12.9945 -0.242716 -4.98039 89.9951 0.080307 -101.526 -5.34813 -1.25947e-06 -3.79883e-06 -64.6468 45.2403 0.527212 -24.3289 0.000322201 -8.65921e-06 39.8716 -13.1203 -105.203 -22.2915 -0.000108084 -4.47941e-06 29.3789 5.68073 -19.8897 -2.19248 -6.46944 -1.22534e-07 173.313 -9.18075 -24.2929 39.0811 -6.73843e-06 -1.23785e-05 -0.00141488 0.000397436 0.0511571 40.9854 -6.48686e-06 -1.26872e-05 2.49286 8.92876 -42.9991 11.7543 -2.30145e-07 3.05095e-06 -0.0980779 0.106754 -15.5207 -2.19251 6.46944 -1.45247e-06 -166.068 18.4277 161.849 -39.0811 -0.00228153 -0.0401928 -0.0014131 0.198656 1.40876 -40.9854 7.72618e-06 5.99936e-06 8.66941 -15.7253 -52.5754 -11.7543 -5.6619e-06 -5.58687e-06 -0.3868 -0.285542 -16.1691 
